<?xml version="1.0" encoding="utf-8"?>
<!-- Generator: Adobe Illustrator 24.0.0, SVG Export Plug-In . SVG Version: 6.00 Build 0)  -->
<svg version="1.1" id="Capa_1" xmlns="http://www.w3.org/2000/svg" xmlns:xlink="http://www.w3.org/1999/xlink" x="0px" y="0px"
	 viewBox="0 0 100 50" style="enable-background:new 0 0 100 50;" xml:space="preserve">
<style type="text/css">
	.st0{fill:#F0F0F0;}
</style>
<g>
	<g>
		<g>
			<path class="st0" d="M95.12,44.13h-1.59c-0.62,0-1.12-0.5-1.12-1.12v-0.08c0-0.62,0.5-1.12,1.12-1.12h0.73
				c0.33,0,0.6-0.27,0.6-0.6c0-0.33-0.27-0.6-0.6-0.6h-1.59V40.1h1.59c0.62,0,1.12,0.5,1.12,1.12c0,0.62-0.5,1.12-1.12,1.12h-0.73
				c-0.33,0-0.6,0.27-0.6,0.6v0.08c0,0.33,0.27,0.6,0.6,0.6h1.59V44.13z"/>
		</g>
		<polygon class="st0" points="83.39,40.1 82.87,40.62 83.39,40.62 83.39,44.13 83.91,44.13 83.91,40.1 		"/>
		<polygon class="st0" points="86.57,40.1 86.05,40.62 86.57,40.62 86.57,44.13 87.09,44.13 87.09,40.1 		"/>
		<polygon class="st0" points="89.75,40.1 89.23,40.62 89.75,40.62 89.75,44.13 90.27,44.13 90.27,40.1 		"/>
	</g>
	<g>
		<path class="st0" d="M79.2,32.79c0,2.88,2.35,5.23,5.23,5.23h1.79v-1.35h-1.79c-2.14,0-3.88-1.74-3.88-3.88
			c0-2.14,1.74-3.88,3.88-3.88h1.79v-1.35h-1.79C81.55,27.56,79.2,29.91,79.2,32.79z"/>
		<rect x="76.39" y="27.56" class="st0" width="1.35" height="10.45"/>
		<path class="st0" d="M52.76,27.56c-2.12,0-3.85,1.73-3.85,3.85v6.61h1.35v-4.66h5v4.66h1.35v-6.61
			C56.6,29.29,54.88,27.56,52.76,27.56z M50.26,32.01v-0.6c0-1.38,1.12-2.5,2.5-2.5c1.38,0,2.5,1.12,2.5,2.5v0.6H50.26z"/>
		<path class="st0" d="M40.42,28.23v9.78h1.35v-4.66h2.5v-1.35h-2.5v-3.1h5.67v-1.35H41.1C40.72,27.56,40.42,27.86,40.42,28.23z"/>
		<path class="st0" d="M65.76,30.46c0-1.6-1.3-2.9-2.9-2.9h-4.12c-0.37,0-0.67,0.3-0.67,0.67v9.11c0,0.37,0.3,0.67,0.67,0.67h4.12
			c1.6,0,2.9-1.3,2.9-2.9v-0.21c0-0.89-0.41-1.69-1.04-2.22C65.36,32.15,65.76,31.35,65.76,30.46z M64.42,35.12
			c0,0.86-0.7,1.55-1.55,1.55h-3.45v-3.31h3.45c0.86,0,1.55,0.7,1.55,1.55V35.12z M62.86,32.01h-3.45v-3.1h3.45
			c0.86,0,1.55,0.7,1.55,1.55C64.42,31.31,63.72,32.01,62.86,32.01z"/>
		<path class="st0" d="M74.92,30.46c0-1.6-1.3-2.9-2.9-2.9H67.9c-0.37,0-0.67,0.3-0.67,0.67v9.78h1.35v-4.66h3.45
			c0.86,0,1.55,0.7,1.55,1.55v3.11h1.35v-3.11c0-0.89-0.41-1.69-1.04-2.22C74.52,32.15,74.92,31.35,74.92,30.46z M72.02,32.01h-3.45
			v-3.1h3.45c0.86,0,1.55,0.7,1.55,1.55C73.57,31.31,72.88,32.01,72.02,32.01z"/>
		<path class="st0" d="M91.53,27.56c-2.12,0-3.85,1.73-3.85,3.85v6.61h1.35v-4.66h5v4.66h1.35v-6.61
			C95.38,29.29,93.66,27.56,91.53,27.56z M89.03,32.01v-0.6c0-1.38,1.12-2.5,2.5-2.5c1.38,0,2.5,1.12,2.5,2.5v0.6H89.03z"/>
	</g>
	<g>
		<path class="st0" d="M49.22,17.88c-1.51,0-2.75,1.23-2.75,2.75v4.72h0.96v-3.32h3.57v3.32h0.96v-4.72
			C51.97,19.11,50.74,17.88,49.22,17.88z M47.44,21.05v-0.43c0-0.98,0.8-1.78,1.78-1.78c0.98,0,1.78,0.8,1.78,1.78v0.43H47.44z"/>
		<path class="st0" d="M41.38,17.88h-0.96v6.98c0,0.27,0.22,0.48,0.48,0.48h4.53v-0.96h-4.05V17.88z"/>
	</g>
	<g>
		<path class="st0" d="M36.66,19.89l-1.17-1.75c-0.2-0.29-0.59-0.37-0.89-0.18l-5.58,3.69c-0.2-0.33-0.55-0.56-0.97-0.56H13.33
			c-0.41,0-0.77,0.22-0.97,0.56l-5.58-3.69c-0.29-0.19-0.69-0.11-0.89,0.18l-1.17,1.75c-0.09,0.14-0.13,0.31-0.09,0.48
			c0.03,0.17,0.13,0.31,0.27,0.41l7.29,4.82v11.35c0,0.62,0.51,1.13,1.13,1.13h14.73c0.62,0,1.13-0.51,1.13-1.13V25.6l7.29-4.82
			c0.14-0.09,0.24-0.24,0.27-0.41C36.79,20.2,36.75,20.03,36.66,19.89z M17.33,26.94l0.96,0.51v3.05h-1.93v-3.05L17.33,26.94z
			 M6.15,20.07l0.46-0.69l5.59,3.7v0.99L6.15,20.07z M27.91,36.8H13.48V22.37h3.22v3.46l-1.26,0.67c-0.21,0.11-0.34,0.33-0.34,0.57
			v4.08c0,0.35,0.29,0.64,0.64,0.64h3.21c0.35,0,0.64-0.29,0.64-0.64v-4.08c0-0.24-0.13-0.45-0.34-0.57l-1.26-0.67v-3.46h9.94V36.8z
			 M29.19,24.07v-0.99l5.59-3.7l0.46,0.69L29.19,24.07z"/>
		<path class="st0" d="M18.16,13.37l-0.38,2.2c-0.04,0.24,0.06,0.48,0.25,0.63c0.2,0.14,0.46,0.16,0.67,0.05l1.98-1.04l1.98,1.04
			c0.09,0.05,0.2,0.07,0.3,0.07c0.13,0,0.26-0.04,0.38-0.12c0.2-0.14,0.3-0.39,0.25-0.63l-0.38-2.2l1.6-1.56
			c0.17-0.17,0.24-0.42,0.16-0.66c-0.08-0.23-0.28-0.4-0.52-0.44l-2.21-0.32l-0.99-2c-0.11-0.22-0.33-0.36-0.57-0.36
			c-0.24,0-0.47,0.14-0.57,0.36l-0.99,2l-2.21,0.32c-0.24,0.04-0.44,0.2-0.52,0.44c-0.08,0.23-0.01,0.49,0.16,0.66L18.16,13.37z
			 M19.65,11.61c0.21-0.03,0.39-0.16,0.48-0.35l0.56-1.14l0.56,1.14c0.09,0.19,0.27,0.32,0.48,0.35L23,11.8l-0.91,0.89
			c-0.15,0.15-0.22,0.36-0.18,0.57l0.22,1.26l-1.13-0.59c-0.09-0.05-0.2-0.07-0.3-0.07s-0.2,0.02-0.3,0.07l-1.13,0.59l0.22-1.26
			c0.04-0.21-0.03-0.42-0.18-0.57l-0.91-0.89L19.65,11.61z"/>
		<path class="st0" d="M32.18,11.7c1.61,0,2.92-1.31,2.92-2.92s-1.31-2.92-2.92-2.92c-1.61,0-2.92,1.31-2.92,2.92
			S30.57,11.7,32.18,11.7z M32.18,7.14c0.9,0,1.64,0.74,1.64,1.64s-0.74,1.64-1.64,1.64c-0.9,0-1.64-0.74-1.64-1.64
			S31.28,7.14,32.18,7.14z"/>
		<path class="st0" d="M11.18,18.28c1.44,0,2.62-1.17,2.62-2.62s-1.17-2.62-2.62-2.62c-1.44,0-2.62,1.17-2.62,2.62
			S9.74,18.28,11.18,18.28z M11.18,14.33c0.74,0,1.34,0.6,1.34,1.34S11.92,17,11.18,17s-1.34-0.6-1.34-1.34S10.45,14.33,11.18,14.33
			z"/>
		<path class="st0" d="M10.73,8.68c0.05,0.04,5.16,4.02,5.35,10.85c0.01,0.35,0.29,0.62,0.64,0.62c0.01,0,0.01,0,0.02,0
			c0.35-0.01,0.63-0.3,0.62-0.66c-0.2-7.43-5.62-11.65-5.85-11.83c-0.28-0.21-0.68-0.16-0.9,0.12C10.39,8.06,10.44,8.46,10.73,8.68z
			"/>
		<path class="st0" d="M20.05,17.28v2.23c0,0.35,0.29,0.64,0.64,0.64s0.64-0.29,0.64-0.64v-2.23c0-0.35-0.29-0.64-0.64-0.64
			S20.05,16.92,20.05,17.28z"/>
		<path class="st0" d="M25.11,20.15c0.01,0,0.02,0,0.04,0c0.34,0,0.62-0.26,0.64-0.6c0.27-4.89,3.45-6.73,3.58-6.81
			c0.31-0.17,0.42-0.56,0.25-0.87c-0.17-0.31-0.56-0.42-0.87-0.25c-0.16,0.09-3.93,2.23-4.24,7.86
			C24.49,19.82,24.76,20.13,25.11,20.15z"/>
	</g>
	<g>
		<polygon class="st0" points="54.25,25.08 52.76,26.58 54.25,26.58 55.75,25.08 		"/>
	</g>
</g>
</svg>
